<svg version="1.2" xmlns="http://www.w3.org/2000/svg" viewBox="0 0 180 180" width="180" height="180"><style>.a{fill:#2b58ef}.b{fill:#123ce8}.c{fill:#2882f5}.d{fill:#2882f6}</style><path class="a" d="m71.8 30.1q8 4.7 16.1 9.3 1.6 1 3.2 1.9 3.3 1.9 6.6 3.8 4.9 2.8 9.8 5.7 1.6 0.9 3.3 1.8 3.2 1.9 6.4 3.8 7.6 4.3 15.1 8.6 2.7 1.6 5.4 3.1 3.3 1.9 6.7 3.8c17.1 9.8 17.1 9.8 19.6 17.1 1.4 6.1 1.2 10.5-2 16-5.5 6-12.4 9.8-19.5 13.6q-3.3 1.8-6.6 3.6-1.7 0.9-3.5 1.9c-6.6 3.7-13.2 7.6-19.8 11.5q-1.4 0.9-2.8 1.7-1.3 0.8-2.5 1.5c-2.2 1.2-3.9 1.9-6.3 2.2-1.8-0.7-1.8-0.7-3.6-1.9q-1-0.6-2-1.2-2.1-1.3-4.2-2.7c-5-3-8.3-3.8-14.2-3.2-3.4 2.1-4.7 3.1-6 7q0 2.3 0.2 4.6c0.6 14 0.6 14-2.5 18.1-3.4 2.9-7.4 4.6-11.5 6.3-2.3 1-4.3 2.2-6.3 3.5-7.8 4.9-14.4 8.6-23.9 6.5-4.9-1.7-8.1-4.7-11-9-1.1-3.2-1.1-5.4-1.1-8.7 0-1.8 0-1.8-0.1-3.6q0-2 0-4 0-2.1 0-4.1 0-5.7 0-11.4 0-3.5 0-7.1 0-11 0-22.1 0-12.8-0.1-25.6 0-9.9 0-19.8 0-5.9 0-11.8-0.1-5.5-0.1-11.1 0-3 0-6 0-1.8 0-3.6 0-1.6 0-3.2c0.7-5.1 2.9-8.9 6.8-12.2q0.9-0.7 1.8-1.5c14.3-9.4 36.7 9.9 48.6 16.9z"/><path class="b" d="m46.7 15.6c8.4 4.7 16.7 9.6 25.1 14.5q8 4.7 16.1 9.3 3.2 1.9 6.5 3.8 1.6 0.9 3.2 1.9 5.3 3 10.5 6 1.8 1 3.5 2 3.4 2 6.7 3.9 8.8 5.1 17.7 10c-1.5 3.8-3.3 5-6.8 7-1.5 0.8-1.5 0.8-3 1.6q-1.7 0.9-3.3 1.8-3.4 1.8-6.9 3.7-0.8 0.5-1.7 1c-6.1 3.3-12.1 6.8-18.1 10.3q-1.4 0.9-2.9 1.7-2.7 1.6-5.5 3.2-7.4 4.4-14.8 8.7c-1-2-1-2-0.8-5.6 0-5-1-8.5-4.2-12.4-3.4-2.6-7-4.7-10.7-6.7-3.7-2.1-7.4-4.3-11.1-6.4q-4.4-2.6-8.9-5.2-1.5-0.9-3-1.8c-2.5-1.4-4.8-2.6-7.4-3.7-9.8-4.6-9.8-4.6-11.7-9.1-1.1-4.6-0.9-9.1-0.7-13.8 0.2-2.4 0.2-4.9 0.2-7.3 0.3-12.8 0.3-12.8 4.2-17.5 9.1-8.4 17.9-6.2 27.8-0.9z"/><path class="c" d="m124.9 0.9c5.9 1.1 10.9 4.7 15.9 7.8q1.5 0.9 3.1 1.8 3.1 1.9 6.1 3.7 3 1.8 5.9 3.5c1.4 0.8 1.4 0.8 2.7 1.6q1.2 0.7 2.4 1.4c2 1.3 2 1.3 4 3.3 0.4 2.9 0.4 2.9 0 6-3.5 3.2-7.3 5.5-11.4 7.8q-0.9 0.5-1.9 1-2.8 1.6-5.7 3.3-2.9 1.6-5.7 3.2-2.6 1.5-5.2 3-3 1.6-5.8 3.4c-2.7 1.6-4.2 1.8-7.3 1.3-2.1-1.6-2.9-2.5-3.4-5.1q0-1.2 0-2.4 0-1.4 0-2.8 0-1.4 0-3 0-1.5 0-3 0-3.2 0-6.4 0-4.9 0-9.8 0-3.1 0-6.2 0-1.5 0-3 0-1.4 0-2.8 0-1.2 0-2.4c0.7-3.9 2.5-5.1 6.3-5.2z"/><path class="d" d="m84.8 138.1c4.7 1.9 9 4.7 13.4 7.3q1.5 0.8 3 1.7c9.2 5.5 9.2 5.5 11.8 8.9 0.1 2.5 0.1 2.5-1 5-2.5 2-2.5 2-5.8 4q-0.9 0.5-1.8 1-1.9 1.1-3.7 2.2-2.9 1.6-5.7 3.3c-10.7 6.2-10.7 6.2-15 6.5-3-2-3-2-4-5-0.2-4.4-0.2-8.8-0.2-13.3q0-3.2 0-6.5 0-2.1 0-4.1 0-1.9 0-3.8c0.2-3.1 0.5-4.8 2.2-7.3 2.6-1.3 4.1-0.7 6.8 0.1z"/></svg>